<svg width="200" height="200" xmlns="http://www.w3.org/2000/svg" fill="none">
 <g id="Layer_1">
  <title>Layer 1</title>
  <g>
   <title>logo-mersao</title>
   <desc>Created with Sketch.</desc>
   <g>
    <title>Layer 1</title>
    <g id="svg_1" stroke="null">
     <g id="svg_2" stroke="null">
      <g id="svg_3" stroke="null">
       <g id="svg_18" enable-background="new" class="st0" stroke="null">
        <path id="svg_25" fill="#FFFFFF" d="m49.55347,140.72098l0,-17.50605l2.07315,0l0,17.50605l-2.07315,0z" class="st1" stroke="null"/>
        <path id="svg_24" fill="#FFFFFF" d="m64.16421,140.72098l-6.022,-15.53908l-0.09872,0c0.09872,1.27853 0.19744,2.65542 0.19744,4.42569l0,11.11339l-1.8757,0l0,-17.50605l3.06035,0l5.62711,14.45723l0.09872,0l5.62711,-14.45723l3.06035,0l0,17.50605l-2.07315,0l0,-11.31008c0,-1.27853 0.09872,-2.75377 0.19744,-4.22899l-0.09872,0l-6.022,15.53908l-1.67826,0l0.00001,0l0.00002,-0.00001z" class="st1" stroke="null"/>
        <path id="svg_23" fill="#FFFFFF" d="m88.44964,140.72098l-9.77341,0l0,-17.50605l9.77341,0l0,1.77027l-7.79898,0l0,5.70422l7.30537,0l0,1.77027l-7.30537,0l0,6.491l7.79898,0l0,1.77027l0,0.00001l0,0.00001z" class="st1" stroke="null"/>
        <path id="svg_22" fill="#FFFFFF" d="m94.47162,133.44319l0,7.27779l-2.07315,0l0,-17.50605l4.83733,0c2.17187,0 3.75141,0.3934 4.83733,1.27853c0.98721,0.78679 1.57954,2.06532 1.57954,3.73724c0,2.36037 -1.18465,3.93394 -3.55396,4.72072l4.73861,7.86789l-2.46804,0l-4.24502,-7.27779l-3.65269,0l0,-0.09835l0.00003,0.00001l0.00002,0.00001zm0,-1.77027l2.7642,0c1.48082,0 2.46804,-0.29505 3.15908,-0.88514c0.69105,-0.5901 0.98721,-1.47523 0.98721,-2.55707c0,-1.18018 -0.29617,-1.96697 -0.98721,-2.55707c-0.69105,-0.49175 -1.77698,-0.78679 -3.35652,-0.78679l-2.56676,0l0,6.78604l0,0.00003z" class="st1" stroke="null"/>
        <path id="svg_21" fill="#FFFFFF" d="m117.5724,136.09861c0,1.57357 -0.59233,2.75377 -1.67826,3.6389c-1.08593,0.88514 -2.66548,1.27853 -4.54118,1.27853c-2.07315,0 -3.65269,-0.29505 -4.83733,-0.78679l0,-1.96697c0.69105,0.29505 1.48082,0.5901 2.36931,0.68845c0.8885,0.1967 1.67826,0.29505 2.56676,0.29505c1.38209,0 2.36931,-0.29505 3.06035,-0.78679c0.69105,-0.49175 1.08593,-1.27853 1.08593,-2.16367c0,-0.5901 -0.09872,-1.08183 -0.39489,-1.47523c-0.19744,-0.3934 -0.69105,-0.78679 -1.18465,-1.08183c-0.59233,-0.29505 -1.48082,-0.68845 -2.66548,-1.08183c-1.67826,-0.5901 -2.7642,-1.27853 -3.55396,-2.06532c-0.69105,-0.78679 -1.08593,-1.86862 -1.08593,-3.14715c0,-1.37688 0.49361,-2.45872 1.48082,-3.2455c0.98721,-0.78679 2.36931,-1.18018 4.04757,-1.18018c1.77698,0 3.35652,0.29505 4.83733,0.98348l-0.59233,1.77027c-1.48082,-0.5901 -2.86291,-0.88514 -4.24502,-0.88514c-1.08593,0 -1.97443,0.1967 -2.56676,0.68845c-0.59233,0.49175 -0.8885,1.08183 -0.8885,1.96697c0,0.5901 0.09872,1.08183 0.29617,1.47523c0.19744,0.3934 0.59233,0.78679 1.18465,1.08183c0.49361,0.29505 1.38209,0.68845 2.46804,1.08183c1.8757,0.68845 3.15908,1.37688 3.85013,2.06532c0.69105,0.5901 0.98721,1.57357 0.98721,2.8521l0.00003,0.00001l-0.00001,-0.00002z" class="st1" stroke="null"/>
        <path id="svg_20" fill="#FFFFFF" d="m132.28186,140.72098l-2.17187,-5.60587l-7.10793,0l-2.17187,5.60587l-2.07315,0l7.0092,-17.60438l1.67826,0l6.91048,17.60438l-2.07315,0l0.00001,0l0.00002,0zm-3.94885,-18.98127c-0.29617,0 -0.69105,-0.09835 -0.98721,-0.1967c-0.29617,-0.1967 -0.69105,-0.29505 -0.98721,-0.49175c-0.29617,-0.1967 -0.59233,-0.29505 -0.8885,-0.49175c-0.29617,-0.1967 -0.59233,-0.1967 -0.8885,-0.1967c-0.39489,0 -0.69105,0.09835 -0.8885,0.3934c-0.19744,0.1967 -0.39489,0.5901 -0.49361,1.08183l-1.18465,0c0.09872,-0.98348 0.39489,-1.77027 0.8885,-2.26202c0.49361,-0.5901 1.08593,-0.78679 1.77698,-0.78679c0.39489,0 0.69105,0.09835 1.08593,0.1967s0.69105,0.29505 0.98721,0.49175c0.29617,0.1967 0.59233,0.3934 0.8885,0.49175s0.59233,0.1967 0.78978,0.1967c0.39489,0 0.69105,-0.09835 0.8885,-0.3934c0.19744,-0.1967 0.39489,-0.5901 0.49361,-1.08183l1.18465,0c-0.09872,0.98348 -0.39489,1.77027 -0.78978,2.26202c-0.49361,0.49175 -1.08593,0.78679 -1.8757,0.78679zm1.08593,11.60513l-2.07315,-5.40917c-0.29617,-0.68845 -0.49361,-1.57357 -0.78978,-2.55707c-0.19744,0.78679 -0.39489,1.57357 -0.78978,2.55707l-2.07315,5.40917l5.72583,0l0.00001,0l0.00002,0z" class="st1" stroke="null"/>
        <path id="svg_19" fill="#FFFFFF" d="m152.12482,131.96796c0,2.8521 -0.69105,5.01577 -2.17187,6.58935c-1.38209,1.57357 -3.45524,2.45872 -5.92328,2.45872c-2.56676,0 -4.63989,-0.78679 -6.022,-2.36037c-1.38209,-1.57357 -2.07315,-3.83559 -2.07315,-6.6877c0,-2.8521 0.69105,-5.11412 2.07315,-6.6877c1.38209,-1.57357 3.45524,-2.36037 6.022,-2.36037c2.56676,0 4.54118,0.78679 5.92328,2.36037c1.48082,1.57357 2.17187,3.83559 2.17187,6.6877zm-14.01841,0c0,2.36037 0.49361,4.13064 1.48082,5.40917s2.46804,1.86862 4.44246,1.86862c1.97443,0 3.45524,-0.5901 4.44246,-1.86862c0.98721,-1.18018 1.48082,-3.0488 1.48082,-5.40917c0,-2.36037 -0.49361,-4.13064 -1.48082,-5.40917c-0.98721,-1.18018 -2.46804,-1.86862 -4.44246,-1.86862c-1.97443,0 -3.45524,0.5901 -4.44246,1.86862c-0.98721,1.27853 -1.48082,3.0488 -1.48082,5.40917z" class="st1" stroke="null"/>
       </g>
       <g id="svg_12" enable-background="new" class="st0" stroke="null">
        <path id="svg_17" fill="#A3FFBF" d="m49.7509,174.06114c0,5.40917 -1.48082,9.63816 -4.54118,12.49026s-7.40409,4.32734 -13.12992,4.32734l-9.2798,0l0,-33.04511l10.267,0c5.23222,0 9.37852,1.37688 12.34015,4.22899c2.86291,2.8521 4.34374,6.88439 4.34374,11.99851l0.00001,0l0,0.00001zm-5.72583,0.1967c0,-7.86789 -3.75141,-11.80183 -11.1555,-11.80183l-4.63989,0l0,23.89869l3.85013,0c7.99642,0 11.94528,-4.03229 11.94528,-12.09686l-0.00001,0l-0.00001,0z" class="st2" stroke="null"/>
        <path id="svg_16" fill="#A3FFBF" d="m77.39286,190.87874l-3.35652,-9.14641l-12.53759,0l-3.2578,9.14641l-5.72583,0l12.34015,-33.14346l5.92328,0l12.43887,33.14346l-5.82455,0l-0.00001,0zm-4.73861,-13.7688l-3.06035,-8.94972c-0.19744,-0.5901 -0.49361,-1.57357 -0.98721,-2.8521c-0.39489,-1.27853 -0.69105,-2.26202 -0.78978,-2.8521c-0.39489,1.86862 -0.98721,3.83559 -1.77698,6.09761l-2.96163,8.55632l9.57596,0l-0.00001,-0.00001z" class="st2" stroke="null"/>
        <path id="svg_15" fill="#A3FFBF" d="m114.51203,174.06114c0,5.40917 -1.48082,9.63816 -4.54118,12.49026s-7.40409,4.32734 -13.12992,4.32734l-9.2798,0l0,-33.04511l10.267,0c5.23222,0 9.37852,1.37688 12.34015,4.22899c2.86291,2.8521 4.34374,6.88439 4.34374,11.99851l0.00001,0l0,0.00001zm-5.72583,0.1967c0,-7.86789 -3.75141,-11.80183 -11.1555,-11.80183l-4.73861,0l0,23.89869l3.85013,0c8.09515,0 12.04398,-4.03229 12.04398,-12.09686z" class="st2" stroke="null"/>
        <path id="svg_14" fill="#A3FFBF" d="m151.0389,174.35618c0,5.40917 -1.38209,9.53981 -4.04757,12.49026c-2.66548,2.95045 -6.51559,4.42569 -11.45167,4.42569c-5.03478,0 -8.88491,-1.47523 -11.55039,-4.42569c-2.66548,-2.95045 -4.04757,-7.17944 -4.04757,-12.58861c0,-5.40917 1.38209,-9.63816 4.04757,-12.58861c2.66548,-2.95045 6.51559,-4.42569 11.55039,-4.42569c4.93606,0 8.68746,1.47523 11.45167,4.42569c2.66548,3.14715 4.04757,7.27779 4.04757,12.68696zm-25.27263,0c0,4.03229 0.78978,7.17944 2.46804,9.24476c1.67826,2.06532 4.04757,3.14715 7.30537,3.14715c3.2578,0 5.62711,-1.08183 7.30537,-3.14715c1.67826,-2.06532 2.46804,-5.21247 2.46804,-9.24476c0,-4.03229 -0.78978,-7.08109 -2.46804,-9.24476c-1.57954,-2.06532 -4.04757,-3.14715 -7.30537,-3.14715c-3.2578,0 -5.72583,1.08183 -7.30537,3.14715c-1.67826,2.06532 -2.46804,5.21247 -2.46804,9.24476z" class="st2" stroke="null"/>
        <path id="svg_13" fill="#A3FFBF" d="m177.20002,181.92902c0,2.95045 -1.08593,5.21247 -3.15908,6.88439c-2.17187,1.67192 -5.03478,2.45872 -8.78619,2.45872c-3.75141,0 -6.81176,-0.5901 -9.18107,-1.77027l0,-5.11412c1.48082,0.68845 3.15908,1.27853 4.83733,1.67192c1.67826,0.3934 3.2578,0.5901 4.73861,0.5901c2.17187,0 3.75141,-0.3934 4.73861,-1.18018c0.98721,-0.78679 1.48082,-1.86862 1.48082,-3.2455c0,-1.27853 -0.49361,-2.26202 -1.38209,-3.14715c-0.8885,-0.88514 -2.86291,-1.86862 -5.82455,-3.0488c-3.06035,-1.18018 -5.1335,-2.65542 -6.41689,-4.13064c-1.28337,-1.57357 -1.8757,-3.4422 -1.8757,-5.60587c0,-2.75377 0.98721,-4.91742 2.96163,-6.491c1.97443,-1.57357 4.63989,-2.36037 7.8977,-2.36037c3.15908,0 6.31816,0.68845 9.47724,2.06532l-1.67826,4.42569c-2.96163,-1.27853 -5.52839,-1.86862 -7.8977,-1.86862c-1.77698,0 -3.06035,0.3934 -3.94885,1.18018s-1.38209,1.77027 -1.38209,3.0488c0,0.88514 0.19744,1.57357 0.59233,2.16367c0.39489,0.5901 0.98721,1.18018 1.77698,1.77027c0.78978,0.5901 2.36931,1.27853 4.44246,2.16367c2.46804,0.98348 4.24502,1.96697 5.33094,2.8521c1.08593,0.88514 1.97443,1.86862 2.46804,2.95045c0.59233,0.98348 0.78978,2.26202 0.78978,3.73724l0,-0.00001l0,0.00001z" class="st2" stroke="null"/>
       </g>
       <g id="svg_4" stroke="null">
        <g id="svg_10" stroke="null">
         <path fill="none" d="m118.46088,5c4.44246,0 8.09515,3.54055 8.09515,7.76954l0,0l0,1.96697l0.19744,0.09835c8.78619,4.52404 15.89411,11.31008 20.73146,19.6697l0,0l2.7642,0c4.44246,0 8.09515,3.54055 8.09515,7.76954l0,0l0,32.84841c0,4.32734 -3.65269,7.76954 -8.09515,7.76954l0,0l-2.7642,0c-1.97443,3.34385 -4.24502,6.491 -7.0092,9.34311l0,0l0,3.0488c0,3.54055 -3.06035,6.491 -6.71304,6.491l0,0l-63.97135,0c-3.75141,0 -6.71304,-2.95045 -6.71304,-6.491l0,0l0,-4.03229c-2.36931,-2.65542 -4.44246,-5.40917 -6.12072,-8.35962l0,0l-2.7642,0c-4.44246,0 -8.09515,-3.54055 -8.09515,-7.76954l0,0l0,-32.75006c0,-4.32734 3.65269,-7.76954 8.09515,-7.76954l0,0l2.7642,0c4.54118,-7.86789 11.1555,-14.35888 19.25065,-18.88292l0,0l0,-2.95045c0,-4.32734 3.65269,-7.76954 8.09515,-7.76954l0,0l34.15755,0l-0.00004,0l-0.00001,0z" class="st3" id="svg_11" stroke="#A3FFBF"/>
        </g>
        <g id="svg_5" stroke="null">
         <ellipse fill="none" ry="31.96328" rx="33.56522" cy="55.64951" cx="102.36933" class="st3" id="svg_9" stroke="#A3FFBF"/>
         <ellipse fill="none" ry="25.37392" rx="26.65474" cy="55.64951" cx="102.36933" class="st3" id="svg_8" stroke="#A3FFBF"/>
         <path fill="none" d="m77.68901,59.48509l31.19591,-24.88219c5.03478,-4.03229 12.34015,-3.34385 16.58517,1.47523c4.04757,4.52404 3.55396,11.50678 -0.98721,15.53908c-0.09872,0.09835 -0.29617,0.1967 -0.39489,0.29505l-31.19591,24.78384c-5.03478,4.03229 -12.34015,3.34385 -16.58517,-1.47523c-4.04757,-4.52404 -3.55396,-11.50678 0.98721,-15.53908c0.19744,0 0.29617,-0.09835 0.39489,-0.1967z" class="st3" id="svg_7" stroke="#A3FFBF"/>
         <path fill="none" d="m127.04964,59.48509l-31.19591,-24.88219c-5.03478,-4.03229 -12.34015,-3.4422 -16.58517,1.37688c-4.04757,4.52404 -3.55396,11.50678 0.98721,15.53908c0.09872,0.09835 0.29617,0.1967 0.39489,0.29505l31.19591,24.88219c5.03478,4.03229 12.34015,3.34385 16.58517,-1.47523c4.04757,-4.52404 3.55396,-11.50678 -0.98721,-15.53908c-0.19744,0 -0.29617,-0.09835 -0.39489,-0.1967z" class="st3" id="svg_6" stroke="#A3FFBF"/>
        </g>
       </g>
      </g>
     </g>
    </g>
   </g>
  </g>
 </g>

</svg>